Normalized EMG Linear Envelopes
nRows=242
nColumns=4

endheader
time	 med_gas_r	  soleus_r	 tib_ant_r	
2.59476	  0.002165	  0.004319	  0.001322	
2.62802	  0.002241	  0.004461	  0.001387	
2.66129	  0.002311	  0.004590	  0.001447	
2.69456	  0.002370	  0.004695	  0.001501	
2.72782	  0.002417	  0.004768	  0.001546	
2.76109	  0.002456	  0.004811	  0.001582	
2.79435	  0.002491	  0.004828	  0.001607	
2.82762	  0.002524	  0.004831	  0.001618	
2.86089	  0.002552	  0.004825	  0.001614	
2.89415	  0.002575	  0.004817	  0.001598	
2.92742	  0.002594	  0.004808	  0.001577	
2.96069	  0.002615	  0.004803	  0.001556	
2.99395	  0.002646	  0.004800	  0.001540	
3.02722	  0.002690	  0.004797	  0.001531	
3.06048	  0.002739	  0.004787	  0.001525	
3.09375	  0.002781	  0.004768	  0.001521	
3.12702	  0.002804	  0.004744	  0.001514	
3.16028	  0.002806	  0.004719	  0.001504	
3.19355	  0.002790	  0.004694	  0.001491	
3.22681	  0.002764	  0.004667	  0.001479	
3.26008	  0.002736	  0.004634	  0.001472	
3.29335	  0.002714	  0.004599	  0.001475	
3.32661	  0.002707	  0.004570	  0.001487	
3.35988	  0.002723	  0.004555	  0.001509	
3.39315	  0.002766	  0.004557	  0.001536	
3.42641	  0.002824	  0.004571	  0.001568	
3.45968	  0.002877	  0.004588	  0.001600	
3.49294	  0.002900	  0.004604	  0.001631	
3.52621	  0.002881	  0.004621	  0.001657	
3.55948	  0.002821	  0.004648	  0.001678	
3.59274	  0.002733	  0.004687	  0.001689	
3.62601	  0.002637	  0.004735	  0.001690	
3.65927	  0.002552	  0.004784	  0.001678	
3.69254	  0.002492	  0.004822	  0.001657	
3.72581	  0.002467	  0.004845	  0.001630	
3.75907	  0.002478	  0.004855	  0.001603	
3.79234	  0.002518	  0.004856	  0.001577	
3.8256	  0.002580	  0.004860	  0.001553	
3.85887	  0.002657	  0.004874	  0.001528	
3.89214	  0.002742	  0.004905	  0.001505	
3.9254	  0.002824	  0.004952	  0.001484	
3.95867	  0.002892	  0.005006	  0.001468	
3.99194	  0.002933	  0.005054	  0.001456	
4.0252	  0.002942	  0.005080	  0.001449	
4.05847	  0.002922	  0.005078	  0.001448	
4.09173	  0.002885	  0.005061	  0.001456	
4.125	  0.002849	  0.005047	  0.001477	
4.15827	  0.002825	  0.005058	  0.001516	
4.19153	  0.002821	  0.005098	  0.001579	
4.2248	  0.002831	  0.005153	  0.001673	
4.25806	  0.002845	  0.005197	  0.001801	
4.29133	  0.002850	  0.005212	  0.001966	
4.3246	  0.002841	  0.005192	  0.002159	
4.35786	  0.002814	  0.005144	  0.002365	
4.39113	  0.002773	  0.005079	  0.002555	
4.4244	  0.002720	  0.005003	  0.002681	
4.45766	  0.002660	  0.004913	  0.002661	
4.49093	  0.002595	  0.004793	  0.002369	
4.52419	  0.002527	  0.004620	  0.001643	
4.55746	  0.002449	  0.004364	  0.000305	
4.59073	  0.002353	  0.003989	 -0.001815	
4.62399	  0.002228	  0.003461	 -0.004845	
4.65726	  0.002069	  0.002757	 -0.008816	
4.69052	  0.001881	  0.001879	 -0.013548	
4.72379	  0.001691	  0.000890	 -0.018477	
4.75706	  0.001550	 -0.000056	 -0.022496	
4.79032	  0.001539	 -0.000677	 -0.023879	
4.82359	  0.001766	 -0.000549	 -0.020279	
4.85685	  0.002360	  0.000894	 -0.008686	
4.89012	  0.003472	  0.004348	  0.014620	
4.92339	  0.005263	  0.010620	  0.053783	
4.95665	  0.007861	  0.020513	  0.112242	
4.98992	  0.011287	  0.034564	  0.190861	
5.02319	  0.015371	  0.052655	  0.286387	
5.05645	  0.019735	  0.073719	  0.391622	
5.08972	  0.023888	  0.095837	  0.497628	
5.12298	  0.027396	  0.116803	  0.596585	
5.15625	  0.030048	  0.134895	  0.683493	
5.18952	  0.031897	  0.149375	  0.756131	
5.22278	  0.033182	  0.160431	  0.814101	
5.25605	  0.034171	  0.168713	  0.857887	
5.28931	  0.035036	  0.174884	  0.888182	
5.32258	  0.035822	  0.179472	  0.905486	
5.35585	  0.036491	  0.182951	  0.910344	
5.38911	  0.036998	  0.185761	  0.904292	
5.42238	  0.037309	  0.188137	  0.890639	
5.45565	  0.037403	  0.189889	  0.873955	
5.48891	  0.037257	  0.190392	  0.858269	
5.52218	  0.036873	  0.188894	  0.845371	
5.55544	  0.036289	  0.184942	  0.834589	
5.58871	  0.035569	  0.178642	  0.824041	
5.62198	  0.034776	  0.170608	  0.812074	
5.65524	  0.033951	  0.161706	  0.797749	
5.68851	  0.033116	  0.152843	  0.780440	
5.72177	  0.032283	  0.144843	  0.759472	
5.75504	  0.031453	  0.138340	  0.734371	
5.78831	  0.030621	  0.133662	  0.705519	
5.82157	  0.029791	  0.130803	  0.674649	
5.85484	  0.029000	  0.129569	  0.644801	
5.8881	  0.028329	  0.129724	  0.619596	
5.92137	  0.027886	  0.130958	  0.602028	
5.95464	  0.027740	  0.132733	  0.593355	
5.9879	  0.027868	  0.134255	  0.592831	
6.02117	  0.028154	  0.134734	  0.598496	
6.05444	  0.028449	  0.133821	  0.608431	
6.0877	  0.028652	  0.131852	  0.621494	
6.12097	  0.028753	  0.129662	  0.637038	
6.15423	  0.028804	  0.128025	  0.654073	
6.1875	  0.028843	  0.127120	  0.670759	
6.22077	  0.028844	  0.126455	  0.684668	
6.25403	  0.028722	  0.125306	  0.693502	
6.2873	  0.028391	  0.123298	  0.695760	
6.32056	  0.027832	  0.120645	  0.691119	
6.35383	  0.027114	  0.117929	  0.680614	
6.3871	  0.026373	  0.115706	  0.666508	
6.42036	  0.025750	  0.114329	  0.651697	
6.45363	  0.025347	  0.114019	  0.638772	
6.4869	  0.025195	  0.114955	  0.629265	
6.52016	  0.025265	  0.117203	  0.623541	
6.55343	  0.025495	  0.120548	  0.621158	
6.58669	  0.025813	  0.124478	  0.621185	
6.61996	  0.026149	  0.128380	  0.622280	
6.65323	  0.026436	  0.131782	  0.622856	
6.68649	  0.026620	  0.134421	  0.621648	
6.71976	  0.026690	  0.136129	  0.618464	
6.75302	  0.026698	  0.136765	  0.614558	
6.78629	  0.026741	  0.136313	  0.612289	
6.81956	  0.026908	  0.135029	  0.614164	
6.85282	  0.027209	  0.133366	  0.621702	
6.88609	  0.027565	  0.131622	  0.634598	
6.91935	  0.027862	  0.129647	  0.650552	
6.95262	  0.028044	  0.126971	  0.665865	
6.98589	  0.028160	  0.123347	  0.676582	
7.01915	  0.028323	  0.119253	  0.679671	
7.05242	  0.028606	  0.115860	  0.673785	
7.08569	  0.028978	  0.114492	  0.659438	
7.11895	  0.029338	  0.115971	  0.638871	
7.15222	  0.029608	  0.120291	  0.615819	
7.18548	  0.029799	  0.126665	  0.594942	
7.21875	  0.029980	  0.133759	  0.580594	
7.25202	  0.030207	  0.140027	  0.575305	
7.28528	  0.030469	  0.144149	  0.578939	
7.31855	  0.030709	  0.145544	  0.589106	
7.35181	  0.030897	  0.144693	  0.602437	
7.38508	  0.031075	  0.142980	  0.615839	
7.41835	  0.031350	  0.142034	  0.627198	
7.45161	  0.031802	  0.142923	  0.635442	
7.48488	  0.032396	  0.145638	  0.640117	
7.51815	  0.032950	  0.149150	  0.640889	
7.55141	  0.033217	  0.151970	  0.637651	
7.58468	  0.033036	  0.152902	  0.631490	
7.61794	  0.032439	  0.151575	  0.625615	
7.65121	  0.031624	  0.148500	  0.624836	
7.68448	  0.030842	  0.144740	  0.633255	
7.71774	  0.030284	  0.141477	  0.651738	
7.75101	  0.030036	  0.139724	  0.677194	
7.78427	  0.030091	  0.140136	  0.704150	
7.81754	  0.030386	  0.142845	  0.727254	
7.85081	  0.030831	  0.147357	  0.743033	
7.88407	  0.031342	  0.152652	  0.750296	
7.91734	  0.031851	  0.157556	  0.749584	
7.9506	  0.032295	  0.161177	  0.742216	
7.98387	  0.032610	  0.163171	  0.729335	
8.01714	  0.032750	  0.163682	  0.711356	
8.0504	  0.032709	  0.163079	  0.688245	
8.08367	  0.032518	  0.161694	  0.660543	
8.11694	  0.032214	  0.159745	  0.630339	
8.1502	  0.031807	  0.157370	  0.601181	
8.18347	  0.031285	  0.154671	  0.576753	
8.21673	  0.030633	  0.151701	  0.559232	
8.25	  0.029885	  0.148484	  0.548461	
8.28327	  0.029143	  0.145099	  0.542324	
8.31653	  0.028552	  0.141716	  0.537959	
8.3498	  0.028232	  0.138552	  0.533219	
8.38306	  0.028215	  0.135800	  0.527794	
8.41633	  0.028434	  0.133611	  0.523406	
8.4496	  0.028777	  0.132071	  0.522800	
8.48286	  0.029137	  0.131107	  0.528017	
8.51613	  0.029437	  0.130419	  0.539153	
8.5494	  0.029624	  0.129634	  0.554459	
8.58266	  0.029681	  0.128639	  0.571565	
8.61593	  0.029640	  0.127804	  0.588667	
8.64919	  0.029586	  0.127787	  0.604797	
8.68246	  0.029615	  0.128998	  0.619291	
8.71573	  0.029778	  0.131167	  0.631335	
8.74899	  0.030063	  0.133442	  0.640233	
8.78226	  0.030431	  0.134962	  0.646046	
8.81552	  0.030867	  0.135398	  0.649591	
8.84879	  0.031359	  0.135045	  0.651332	
8.88206	  0.031833	  0.134471	  0.650075	
8.91532	  0.032119	  0.134132	  0.643050	
8.94859	  0.032018	  0.134207	  0.627876	
8.98185	  0.031424	  0.134655	  0.604937	
9.01512	  0.030392	  0.135277	  0.577944	
9.04839	  0.029095	  0.135687	  0.552006	
9.08165	  0.027713	  0.135301	  0.530787	
9.11492	  0.026357	  0.133507	  0.515034	
9.14819	  0.025093	  0.130032	  0.503315	
9.18145	  0.024001	  0.125265	  0.493842	
9.21472	  0.023220	  0.120223	  0.485707	
9.24798	  0.022891	  0.116088	  0.478979	
9.28125	  0.023059	  0.113641	  0.474218	
9.31452	  0.023597	  0.112962	  0.472043	
9.34778	  0.024238	  0.113549	  0.472770	
9.38105	  0.024687	  0.114662	  0.475943	
9.41431	  0.024750	  0.115606	  0.479976	
9.44758	  0.024394	  0.115838	  0.482236	
9.48085	  0.023699	  0.114927	  0.479562	
9.51411	  0.022752	  0.112493	  0.468851	
9.54738	  0.021580	  0.108217	  0.447589	
9.58065	  0.020143	  0.101903	  0.414419	
9.61391	  0.018395	  0.093573	  0.369736	
9.64718	  0.016345	  0.083519	  0.315957	
9.68044	  0.014077	  0.072255	  0.257120	
9.71371	  0.011735	  0.060403	  0.197961	
9.74698	  0.009472	  0.048589	  0.142894	
9.78024	  0.007425	  0.037396	  0.095280	
9.81351	  0.005694	  0.027363	  0.057057	
9.84677	  0.004334	  0.018941	  0.028710	
9.88004	  0.003352	  0.012402	  0.009495	
9.91331	  0.002715	  0.007773	 -0.002126	
9.94657	  0.002357	  0.004840	 -0.008007	
9.97984	  0.002205	  0.003246	 -0.009936	
10.0131	  0.002199	  0.002605	 -0.009419	
10.0464	  0.002297	  0.002576	 -0.007618	
10.0796	  0.002485	  0.002886	 -0.005354	
10.1129	  0.002766	  0.003327	 -0.003154	
10.1462	  0.003155	  0.003760	 -0.001300	
10.1794	  0.003674	  0.004111	  0.000102	
10.2127	  0.004336	  0.004363	  0.001064	
10.246	  0.005123	  0.004538	  0.001656	
10.2792	  0.005963	  0.004663	  0.001966	
10.3125	  0.006726	  0.004758	  0.002080	
10.3458	  0.007251	  0.004824	  0.002072	
10.379	  0.007404	  0.004858	  0.001997	
10.4123	  0.007140	  0.004855	  0.001896	
10.4456	  0.006524	  0.004820	  0.001795	
10.4788	  0.005704	  0.004765	  0.001708	
10.5121	  0.004844	  0.004704	  0.001641	
10.5454	  0.004066	  0.004646	  0.001594	
10.5786	  0.003431	  0.004597	  0.001565	
10.6119	  0.002942	  0.004558	  0.001552	
